<?xml version="1.0" encoding="utf-8"?>
<!-- Generator: Adobe Illustrator 25.2.1, SVG Export Plug-In . SVG Version: 6.00 Build 0)  -->
<svg version="1.1" id="Layer_1" xmlns="http://www.w3.org/2000/svg" xmlns:xlink="http://www.w3.org/1999/xlink" x="0px" y="0px"
	 viewBox="0 0 80 80" style="enable-background:new 0 0 80 80;" xml:space="preserve">
<g>
	<path d="M42.62,30.48c-2.77-2.67-6.2-3.71-7.65-2.32c-1.45,1.39-0.37,4.69,2.41,7.36c2.77,2.67,6.2,3.7,7.65,2.31
		C46.47,36.44,45.4,33.14,42.62,30.48z M42.38,34.18c-0.66,0.65-1.51,0.79-2.47,0.81c-0.87-0.02-1.74-0.2-2.39-0.92
		c-0.47-0.51-0.47-1.09,0.02-1.59c0.9-0.92,2.06-1,3.25-0.79c0.52,0.09,1.06,0.33,1.49,0.63C42.99,32.82,42.99,33.58,42.38,34.18z"
		/>
	<path d="M72.18,32.29c-2.89-1.11-5.79-2.22-8.68-3.33c-2.7-1.04-5.41-2.08-8.11-3.12c-2.35-0.9-4.69-1.8-7.03-2.7
		c-2.7-1.04-5.41-2.09-8.12-3.12c-0.18-0.07-0.44-0.06-0.63,0.01c-1.56,0.58-3.11,1.18-4.66,1.78c-3.87,1.49-7.74,3-11.62,4.49
		c-2.27,0.88-4.55,1.74-6.82,2.61c-3.52,1.35-7.03,2.71-10.54,4.07c-0.24,0.09-0.47,0.22-0.72,0.34c0.08,0.08,0.09,0.12,0.12,0.14
		c2.55,1.23,5.11,2.46,7.66,3.69c2.64,1.27,5.28,2.53,7.92,3.8c2.64,1.27,5.27,2.55,7.91,3.82c3.09,1.49,6.19,2.94,9.27,4.45
		c1.84,0.9,1.8,0.91,3.61,0.02c3.39-1.67,6.8-3.28,10.2-4.93c3.05-1.46,6.11-2.93,9.16-4.4c3.53-1.7,7.07-3.4,10.6-5.1
		c0.98-0.47,1.95-0.94,3.06-1.48C73.81,32.93,72.99,32.6,72.18,32.29z M46.08,38.91c-1.77,1.71-5.96,0.44-9.35-2.83
		c-3.4-3.27-4.71-7.3-2.94-9c1.77-1.7,5.96-0.43,9.35,2.83C46.54,33.18,47.85,37.21,46.08,38.91z"/>
	<path d="M22.6,43.81c1.68,0.77,3.32,1.52,4.96,2.27c2.36,1.09,4.71,2.18,7.07,3.27c1.57,0.73,3.15,1.44,4.71,2.19
		c0.42,0.2,0.77,0.21,1.2,0.01c3.35-1.57,6.71-3.12,10.07-4.67c2.12-0.98,4.25-1.96,6.37-2.93c0.1-0.04,0.2-0.08,0.34-0.13
		c0.01,0.2,0.03,0.36,0.03,0.51c0,2.31-0.01,4.61,0.02,6.92c0,0.41-0.15,0.58-0.51,0.75c-3.87,1.85-7.73,3.73-11.59,5.59
		c-1.66,0.8-3.31,1.6-4.98,2.38c-0.18,0.09-0.49,0.09-0.67,0.01c-2.51-1.19-5.02-2.4-7.52-3.6c-2.32-1.12-4.64-2.24-6.96-3.36
		c-0.76-0.37-1.53-0.72-2.29-1.11c-0.14-0.07-0.3-0.28-0.3-0.43c-0.02-2.5-0.01-5.01-0.01-7.51C22.53,43.94,22.56,43.91,22.6,43.81z
		"/>
</g>
</svg>
